<?xml version="1.0" encoding="UTF-8"?>
<!--
  Customised expansive waves background for Harshitha’s portfolio.
  This SVG is derived from the original provided file but removes the solid
  blue base fill and lightens the overall palette. The waves float on a
  transparent backdrop so the page’s own background colour shines through.
-->
<svg width="2400" height="1400" viewBox="0 0 2400 1400" xmlns="http://www.w3.org/2000/svg" preserveAspectRatio="xMidYMid slice">
  <defs>
    <!-- Lightened background gradient (unused because rect removed) -->
    <linearGradient id="bg" x1="0" y1="0" x2="0" y2="1">
      <stop offset="0%" stop-color="#f7faff"/>
      <stop offset="100%" stop-color="#f9fbff"/>
    </linearGradient>
    <linearGradient id="wave1" x1="0" y1="0" x2="1" y2="0">
      <stop offset="0%" stop-color="#8fd3ff"/>
      <stop offset="100%" stop-color="#b8b8ff"/>
    </linearGradient>
    <linearGradient id="wave2" x1="0" y1="0" x2="1" y2="0">
      <stop offset="0%" stop-color="#63b3ff"/>
      <stop offset="100%" stop-color="#8ba7ff"/>
    </linearGradient>
    <linearGradient id="wave3" x1="0" y1="0" x2="1" y2="0">
      <stop offset="0%" stop-color="#3f90ff"/>
      <stop offset="100%" stop-color="#7a6bff"/>
    </linearGradient>
    <linearGradient id="wave4" x1="0" y1="0" x2="1" y2="0">
      <stop offset="0%" stop-color="#2a6df7"/>
      <stop offset="100%" stop-color="#7a4dff"/>
    </linearGradient>
    <filter id="soft">
      <feGaussianBlur stdDeviation="18" result="b"/>
      <feBlend in="SourceGraphic" in2="b" mode="normal"/>
    </filter>
  </defs>

  <!-- Removed the base rectangle to allow page background to show through -->
  <g filter="url(#soft)" opacity="0.9">
    <path d="M -200 300 C 300 200, 800 500, 1300 380 C 1800 260, 2200 520, 2600 420 L 2600 600 L -200 600 Z" fill="url(#wave1)"/>
    <path d="M -200 520 C 300 420, 900 700, 1400 560 C 1900 430, 2300 690, 2600 600 L 2600 780 L -200 780 Z" fill="url(#wave2)" opacity="0.9"/>
    <path d="M -200 740 C 300 620, 1000 900, 1500 760 C 2000 630, 2350 900, 2600 820 L 2600 980 L -200 980 Z" fill="url(#wave3)" opacity="0.85"/>
    <path d="M -200 960 C 350 860, 1100 1120, 1600 980 C 2100 850, 2400 1120, 2600 1040 L 2600 1200 L -200 1200 Z" fill="url(#wave4)" opacity="0.85"/>
  </g>
</svg>