<svg xmlns="http://www.w3.org/2000/svg" viewBox="0 0 200 200">
  <path fill="url(#grad2)" d="M40.2,-69.6C52.6,-61.1,65,-52.2,72.7,-40.1C80.4,-28,83.4,-12.8,82.2,2.2C81.1,17.2,75.9,34.4,65.5,45.6C55.1,56.8,39.6,62,24,68.5C8.4,75.1,-7.2,83,-20.5,80.5C-33.8,78.1,-44.7,65.2,-56.5,52.2C-68.3,39.1,-81,26,-84.1,9.9C-87.3,-6.2,-80.9,-25.2,-69.1,-37.7C-57.3,-50.1,-40.1,-56.1,-24.3,-63.7C-8.5,-71.3,5.9,-80.4,20.4,-79.9C34.9,-79.3,69.8,-78,40.2,-69.6Z" transform="translate(100 100)"></path>
  <defs>
    <linearGradient id="grad2" x1="0%" y1="0%" x2="100%" y2="100%">
      <stop offset="0%" style="stop-color:#f7971e;stop-opacity:1"></stop>
      <stop offset="100%" style="stop-color:#ffd200;stop-opacity:1"></stop>
    </linearGradient>
  </defs>
</svg>
